<svg width="20" height="21" viewBox="0 0 20 21" fill="none" xmlns="http://www.w3.org/2000/svg">
<path d="M10.0332 4.53369V10.5337H14.5332M19.0332 10.5337C19.0332 11.7156 18.8004 12.8859 18.3481 13.9778C17.8958 15.0698 17.2329 16.0619 16.3972 16.8977C15.5614 17.7334 14.5693 18.3963 13.4774 18.8486C12.3854 19.3009 11.2151 19.5337 10.0332 19.5337C8.85131 19.5337 7.68098 19.3009 6.58905 18.8486C5.49712 18.3963 4.50497 17.7334 3.66924 16.8977C2.83351 16.0619 2.17058 15.0698 1.71829 13.9778C1.26599 12.8859 1.0332 11.7156 1.0332 10.5337C1.0332 8.14674 1.98141 5.85756 3.66924 4.16973C5.35707 2.4819 7.64625 1.53369 10.0332 1.53369C12.4202 1.53369 14.7093 2.4819 16.3972 4.16973C18.085 5.85756 19.0332 8.14674 19.0332 10.5337Z" stroke="black" stroke-width="1.5" stroke-linecap="round" stroke-linejoin="round"/>
</svg>
